<?xml version="1.0" encoding="utf-8"?><svg viewBox="0 0 40 40" xmlns="http://www.w3.org/2000/svg" xmlns:xlink="http://www.w3.org/1999/xlink"><style>:root>svg{display:none}:root>svg:target{display:block}</style><svg viewBox="0 0 40 40" id="fb" xmlns="http://www.w3.org/2000/svg"><path fill-rule="evenodd" clip-rule="evenodd" d="M0 20C0 8.955 8.955 0 20 0s20 8.953 20 20c0 11.045-8.955 20-20 20S0 31.045 0 20zm21.892 0l3.278-.003.437-4.134h-3.72l.005-2.07c0-1.078.075-1.655 1.623-1.655h2.07V8h-3.31c-3.973 0-4.888 2.053-4.888 5.428l.005 2.434-3 .003V20h3v12h4.498l.002-12z"/></svg><svg viewBox="0 0 40 40" id="inst" xmlns="http://www.w3.org/2000/svg"><path fill-rule="evenodd" clip-rule="evenodd" d="M20 0C8.956 0 0 8.956 0 20s8.956 20 20 20 20-8.956 20-20S31.044 0 20 0zm11.415 24.735c-.055 1.222-.25 2.057-.534 2.788a5.872 5.872 0 01-3.358 3.358c-.73.284-1.566.478-2.788.534-1.225.056-1.616.07-4.735.07s-3.51-.014-4.735-.07c-1.222-.056-2.057-.25-2.787-.534a5.626 5.626 0 01-2.035-1.324 5.628 5.628 0 01-1.324-2.034c-.284-.73-.478-1.566-.534-2.788-.056-1.225-.07-1.616-.07-4.735s.014-3.51.07-4.735c.055-1.222.25-2.057.533-2.788.289-.766.741-1.46 1.325-2.034a5.625 5.625 0 012.034-1.324c.731-.284 1.566-.478 2.788-.534 1.225-.056 1.616-.07 4.735-.07s3.51.014 4.735.07c1.222.056 2.057.25 2.788.533a5.63 5.63 0 012.034 1.325 5.626 5.626 0 011.324 2.034c.285.731.479 1.566.534 2.788.056 1.225.07 1.616.07 4.735s-.014 3.51-.07 4.735zm-2.52-11.44c-.185-.501-.48-.955-.863-1.327a3.571 3.571 0 00-1.326-.863c-.407-.158-1.018-.346-2.142-.397-1.217-.055-1.582-.067-4.662-.067-3.081 0-3.446.011-4.662.067-1.125.051-1.736.24-2.142.397a3.57 3.57 0 00-1.327.863 3.577 3.577 0 00-.863 1.327c-.158.406-.346 1.017-.397 2.142-.056 1.216-.068 1.581-.068 4.662 0 3.08.012 3.445.068 4.662.051 1.125.239 1.735.397 2.142.185.501.48.954.863 1.326.372.384.825.679 1.326.863.407.159 1.018.347 2.143.398 1.216.055 1.58.067 4.661.067 3.081 0 3.446-.012 4.662-.067 1.125-.051 1.736-.24 2.143-.398a3.82 3.82 0 002.19-2.19c.157-.406.345-1.016.396-2.141.056-1.217.068-1.582.068-4.662s-.012-3.446-.067-4.662c-.052-1.125-.24-1.736-.398-2.142zm-8.993 12.727a5.924 5.924 0 11-.001-11.848 5.924 5.924 0 010 11.848zm4.773-12.082a1.385 1.385 0 102.77 0 1.385 1.385 0 00-2.77 0zM23.843 20a3.842 3.842 0 11-7.684 0 3.842 3.842 0 017.684 0z"/></svg><svg viewBox="0 0 40 40" id="vk" xmlns="http://www.w3.org/2000/svg"><path fill-rule="evenodd" clip-rule="evenodd" d="M40 20c0 11.046-8.954 20-20 20S0 31.046 0 20 8.954 0 20 0s20 8.954 20 20zm-19.725 8.937H18.72s-3.43.209-6.449-2.97C8.98 22.499 6.07 15.617 6.07 15.617s-.167-.45.015-.669c.205-.245.762-.26.762-.26l3.715-.025s.35.059.601.245c.207.153.322.44.322.44s.6 1.536 1.396 2.925c1.552 2.712 2.275 3.306 2.802 3.015.768-.424.537-3.834.537-3.834s.015-1.238-.386-1.789c-.31-.427-.896-.552-1.154-.587-.209-.028.134-.519.579-.74.668-.33 1.85-.35 3.244-.335 1.087.011 1.4.08 1.825.184.985.24.955 1.012.888 2.677-.02.497-.042 1.074-.042 1.74 0 .15-.005.31-.01.475-.022.852-.049 1.828.506 2.19.285.187.98.029 2.722-2.96.825-1.418 1.444-3.083 1.444-3.083s.135-.297.345-.425c.215-.13.505-.09.505-.09l3.909-.024s1.175-.142 1.365.394c.2.563-.44 1.877-2.036 4.03-1.518 2.046-2.255 2.797-2.185 3.463.051.484.53.924 1.448 1.785 1.924 1.806 2.437 2.755 2.559 2.98l.022.04c.861 1.445-.955 1.558-.955 1.558l-3.472.05s-.746.149-1.728-.534c-.514-.356-1.016-.938-1.494-1.493-.731-.847-1.407-1.63-1.984-1.446-.968.31-.937 2.42-.937 2.42s.007.45-.214.69c-.24.261-.71.313-.71.313z"/></svg><svg viewBox="0 0 40 40" id="youtube" xmlns="http://www.w3.org/2000/svg"><path fill-rule="evenodd" clip-rule="evenodd" d="M20 0C8.956 0 0 8.956 0 20s8.956 20 20 20 20-8.956 20-20S31.044 0 20 0zm12.497 20.02s0 4.056-.515 6.012a3.132 3.132 0 01-2.203 2.203c-1.956.515-9.78.515-9.78.515s-7.802 0-9.778-.535a3.132 3.132 0 01-2.203-2.203C7.503 24.076 7.503 20 7.503 20s0-4.056.515-6.012a3.195 3.195 0 012.203-2.223C12.177 11.25 20 11.25 20 11.25s7.823 0 9.78.535a3.132 3.132 0 012.202 2.203c.536 1.956.515 6.032.515 6.032zM24.015 20l-6.506 3.747v-7.494L24.015 20z"/></svg></svg>