<?xml version="1.0" encoding="utf-8"?><!DOCTYPE svg PUBLIC "-//W3C//DTD SVG 1.1//EN" "http://www.w3.org/Graphics/SVG/1.1/DTD/svg11.dtd"><svg viewBox="0 0 142 112" xmlns="http://www.w3.org/2000/svg" xmlns:xlink="http://www.w3.org/1999/xlink"><style>:root>svg{display:none}:root>svg:target{display:block}</style><svg viewBox="0 0 9 14" id="icon-arrow" xmlns="http://www.w3.org/2000/svg"><path d="M8.429 7a.828.828 0 00-.252-.594l-5.28-5.16a.874.874 0 00-1.216 0 .827.827 0 000 1.189L6.353 7 1.68 11.565a.827.827 0 000 1.189.874.874 0 001.216 0l5.28-5.16A.828.828 0 008.43 7z"/></svg><svg viewBox="0 0 127 110" id="icon-cardiology" xmlns="http://www.w3.org/2000/svg"><path d="M92.735 0C82.294 0 73.22 4.97 66.493 14.372a48.075 48.075 0 00-3.354 5.438 48.104 48.104 0 00-3.355-5.438C53.058 4.97 43.984 0 33.542 0 14.206 0 0 16.094 0 35.827c0 21.994 17.87 37.045 44.92 59.829 5.038 4.243 10.248 8.632 15.796 13.44a3.69 3.69 0 002.423.904 3.69 3.69 0 002.423-.904c5.548-4.808 10.758-9.197 15.796-13.44 27.05-22.784 44.92-37.835 44.92-59.829C126.278 16.1 112.078 0 92.735 0zM76.592 89.997c-4.32 3.638-8.766 7.383-13.453 11.416-4.687-4.033-9.133-7.778-13.453-11.416-14.54-12.247-26.259-22.12-33.641-31.79h17.497a3.7 3.7 0 003.31-2.046l4.09-8.18L52.43 70.959a3.7 3.7 0 006.618 0l4.09-8.18 4.09 8.18a3.699 3.699 0 006.618 0l11.49-22.978 4.09 8.18c.626 1.253 1.907 2.02 3.308 2.02h17.498c-7.382 9.672-19.102 19.57-33.641 31.816zm18.43-39.19l-6.377-12.753a3.7 3.7 0 00-6.618 0L70.538 61.032l-4.09-8.18a3.7 3.7 0 00-6.618 0l-4.09 8.18-11.49-22.978a3.7 3.7 0 00-6.617 0l-6.377 12.753h-19.99C8.751 45.99 7.4 41.084 7.4 35.827 7.4 19.62 18.64 7.4 33.542 7.4c8.003 0 14.766 3.738 20.103 11.109 4.201 5.803 5.91 11.763 5.93 11.836a3.7 3.7 0 007.13-.007c.063-.23 6.576-22.938 26.03-22.938 14.904 0 26.144 12.221 26.144 28.428 0 5.257-1.352 10.162-3.868 14.98h-19.99z"/></svg><svg viewBox="0 0 25 25" id="icon-clock" xmlns="http://www.w3.org/2000/svg"><path fill-rule="evenodd" clip-rule="evenodd" d="M0 12.5C0 5.607 5.607 0 12.5 0 19.392 0 25 5.607 25 12.5 25 19.392 19.392 25 12.5 25 5.607 25 0 19.392 0 12.5zm2.66 0c0 5.427 4.414 9.84 9.84 9.84s9.84-4.413 9.84-9.84c0-5.426-4.414-9.84-9.84-9.84S2.66 7.074 2.66 12.5z"/><path d="M19.015 12.114h-5.618V5.36a1.03 1.03 0 00-2.058 0v7.783c0 .569.46 1.03 1.03 1.03h6.646a1.03 1.03 0 000-2.059z"/></svg><svg viewBox="0 0 126 110" id="icon-dentistry" xmlns="http://www.w3.org/2000/svg"><path d="M99.489 29.333a3.667 3.667 0 100-7.334 3.667 3.667 0 000 7.334zM92.156 44a3.667 3.667 0 100-7.333 3.667 3.667 0 000 7.333zM106.822 44a3.667 3.667 0 100-7.334 3.667 3.667 0 000 7.334z"/><path d="M92.155 7.333h-5.748C83.804 2.948 79.023 0 73.564 0H51.591c-5.459 0-10.24 2.948-12.842 7.333H33c-18.196 0-33 14.804-33 33v29.334c0 2.937 1.144 5.7 3.223 7.777a10.947 10.947 0 004.512 2.73 58.507 58.507 0 0011.332 28.359c1.804 2.407 5.582 1.732 6.445-1.146l6.846-22.823A10.968 10.968 0 0040.334 88c2.846 0 5.442-1.086 7.397-2.866A11.293 11.293 0 0055.244 88c2.846 0 5.442-1.086 7.398-2.866A11.293 11.293 0 0070.156 88c2.815 0 5.385-1.064 7.333-2.81A10.954 10.954 0 0084.822 88c3.136 0 5.97-1.32 7.976-3.432l6.845 22.819c.865 2.882 4.643 3.55 6.446 1.146a58.518 58.518 0 0011.332-28.359 10.947 10.947 0 004.512-2.73 10.926 10.926 0 003.222-7.777V40.333c0-18.196-14.803-33-33-33zm-40.564 0h21.973c4.186 0 7.591 3.406 7.591 7.591 0 1.504-.44 2.96-1.275 4.212l-9.433 14.15c-1.37 2.054-3.945 3.38-6.561 3.38h-2.617c-2.56 0-5.17-1.295-6.56-3.38l-9.434-14.15A7.57 7.57 0 0144 14.925c0-4.186 3.406-7.592 7.591-7.592zm-44.258 33c0-14.152 11.514-25.666 25.667-25.666h3.673c-.001.086-.006.171-.006.258 0 2.956.866 5.819 2.506 8.278l9.434 14.151a14.437 14.437 0 002.964 3.228c-.14 5.853-5.228 10.751-11.238 10.751h-11.63c-7.799 0-15.217 2.46-21.37 7.012V40.333zm13.448 57.304a51.159 51.159 0 01-5.692-17.755 10.972 10.972 0 003.688-2.438 14.142 14.142 0 019.29-4.095l-7.286 24.288zM44 77a3.67 3.67 0 01-3.667 3.667A3.67 3.67 0 0136.667 77v-3.667h3.666c1.232 0 2.456-.07 3.667-.205V77zm14.911 0a3.67 3.67 0 01-3.667 3.667c-2.083 0-3.91-1.714-3.91-3.667v-5.553a33.242 33.242 0 007.577-3.822V77zm14.911 0a3.67 3.67 0 01-3.666 3.667c-2.084 0-3.912-1.714-3.912-3.667v-9.375a33.25 33.25 0 007.578 3.822V77zm14.667 0a3.67 3.67 0 01-3.667 3.667A3.67 3.67 0 0181.155 77v-3.872c1.212.135 2.436.205 3.667.205h3.667V77zm15.885 20.637l-7.286-24.288a14.145 14.145 0 019.29 4.095 10.972 10.972 0 003.689 2.438 51.154 51.154 0 01-5.693 17.755zm12.373-25.378a3.667 3.667 0 01-5.184 0 21.517 21.517 0 00-15.11-6.26h-11.63c-7.451 0-14.552-3.237-19.484-8.882a3.667 3.667 0 00-5.523 0C54.885 62.762 47.783 66 40.333 66H28.704a21.519 21.519 0 00-15.112 6.259 3.668 3.668 0 01-5.184 0 3.67 3.67 0 010-5.186c5.419-5.42 12.626-8.406 20.295-8.406h11.63c4.891 0 9.526-1.898 13.052-5.345 2.717-2.656 4.5-5.969 5.195-9.562.883.157 1.782.24 2.69.24h2.616c.987 0 1.965-.097 2.921-.283 1.593 8.498 9.063 14.95 18.015 14.95h11.63c7.669 0 14.877 2.985 20.295 8.407a3.669 3.669 0 010 5.185zm1.075-13.914c-6.153-4.552-13.571-7.012-21.37-7.012h-11.63c-6.047 0-10.97-4.906-10.999-10.947a14.397 14.397 0 002.725-3.032l9.434-14.15a14.879 14.879 0 002.507-8.28c0-.086-.005-.171-.007-.258h3.673c14.153 0 25.667 11.514 25.667 25.667v18.012z"/><path d="M25.667 29.333a3.667 3.667 0 100-7.333 3.667 3.667 0 000 7.333zM18.334 44a3.667 3.667 0 100-7.333 3.667 3.667 0 000 7.333zM33 44a3.667 3.667 0 100-7.333A3.667 3.667 0 0033 44z"/></svg><svg viewBox="0 0 63.445 63.445" id="icon-dermatology" xmlns="http://www.w3.org/2000/svg"><path d="M21.572 28.926c5.067 0 9.19-5.533 9.19-12.334s-4.123-12.334-9.19-12.334c-5.067 0-9.19 5.533-9.19 12.334s4.122 12.334 9.19 12.334zm0-21.668c3.355 0 6.19 4.275 6.19 9.334s-2.834 9.334-6.19 9.334c-3.356 0-6.19-4.275-6.19-9.334s2.834-9.334 6.19-9.334zM48.83 40.922c-.189-.256-.37-.498-.466-.707-2.054-4.398-7.689-9.584-16.813-9.713L31.2 30.5c-8.985 0-14.576 4.912-16.813 9.51-.077.156-.247.361-.427.576a8.082 8.082 0 00-.604.793c-1.89 2.941-2.853 6.25-2.711 9.318.15 3.26 1.512 5.877 3.835 7.369.937.604 1.95.907 3.011.907 2.191 0 4.196-1.233 6.519-2.664 1.476-.907 3.002-1.848 4.698-2.551.191-.063.968-.158 2.241-.158 1.515 0 2.6.134 2.833.216 1.653.729 3.106 1.688 4.513 2.612 2.154 1.418 4.188 2.759 6.395 2.759.947 0 1.867-.248 2.732-.742 4.778-2.715 5.688-10.162 2.03-16.603a9.757 9.757 0 00-.622-.92zm-2.891 14.916c-.422.238-.818.35-1.25.35-1.308 0-2.9-1.049-4.746-2.264-1.438-.947-3.066-2.02-4.949-2.852-.926-.41-2.934-.472-4.046-.472-1.629 0-2.76.128-3.362.375-1.943.808-3.646 1.854-5.149 2.779-1.934 1.188-3.604 2.219-4.946 2.219-.49 0-.931-.137-1.389-.432-1.483-.953-2.356-2.724-2.461-4.984-.113-2.45.682-5.135 2.238-7.557.113-.177.25-.334.383-.492.274-.328.586-.701.823-1.188 1.84-3.781 6.514-7.82 14.115-7.82l.308.002c7.736.109 12.451 4.369 14.137 7.982.225.479.517.875.773 1.223.146.199.301.4.426.619 2.84 5 2.435 10.613-.905 12.512zM41.111 28.926c5.068 0 9.191-5.533 9.191-12.334S46.18 4.258 41.111 4.258c-5.066 0-9.189 5.533-9.189 12.334s4.122 12.334 9.189 12.334zm0-21.668c3.355 0 6.191 4.275 6.191 9.334s-2.834 9.334-6.191 9.334c-3.355 0-6.189-4.275-6.189-9.334s2.834-9.334 6.189-9.334zM56.205 22.592c-4.061 0-7.241 4.213-7.241 9.59 0 5.375 3.181 9.588 7.241 9.588s7.24-4.213 7.24-9.588c0-5.377-3.179-9.59-7.24-9.59zm0 16.178c-2.299 0-4.241-3.018-4.241-6.588 0-3.572 1.942-6.59 4.241-6.59s4.24 3.018 4.24 6.59c0 3.57-1.942 6.588-4.24 6.588zM14.482 32.182c0-5.377-3.181-9.59-7.241-9.59S0 26.805 0 32.182c0 5.375 3.181 9.588 7.241 9.588s7.241-4.213 7.241-9.588zM7.241 38.77C4.942 38.77 3 35.752 3 32.182c0-3.572 1.942-6.59 4.241-6.59 2.299 0 4.241 3.018 4.241 6.59 0 3.57-1.942 6.588-4.241 6.588z"/></svg><svg viewBox="0 0 97 110" id="icon-diagnostics" xmlns="http://www.w3.org/2000/svg"><path d="M48.34 32.227a3.223 3.223 0 100-6.446 3.223 3.223 0 000 6.446z"/><path d="M72.15 58.558a29.202 29.202 0 005.194-16.663V29.008v-.004-.006C77.34 13.008 64.33 0 48.34 0 32.347 0 19.336 13.011 19.336 29.004v12.89a29.203 29.203 0 005.193 16.664C10.502 60.702 0 72.925 0 87.227v19.55A3.223 3.223 0 003.223 110h90.234a3.223 3.223 0 003.223-3.223v-19.55c0-14.254-10.456-26.518-24.53-28.669zM48.34 6.445c11.345 0 20.759 8.418 22.327 19.336H64.13c-1.497-7.346-8.008-12.89-15.79-12.89-7.78 0-14.291 5.544-15.788 12.89h-6.539C27.581 14.864 36.995 6.445 48.34 6.445zm9.668 22.559c0 5.33-4.337 9.668-9.668 9.668-5.331 0-9.668-4.337-9.668-9.668 0-5.331 4.337-9.668 9.668-9.668 5.33 0 9.668 4.337 9.668 9.668zM25.78 32.227h6.77c1.497 7.346 8.007 12.89 15.789 12.89 7.781 0 14.292-5.544 15.789-12.89h6.77v9.668c0 12.557-10.12 22.773-22.56 22.773-5.577 0-10.688-2.055-14.63-5.454a3.19 3.19 0 00-.2-.175 22.819 22.819 0 01-7.728-17.145v-9.667zM22.56 84.004a3.226 3.226 0 013.222 3.223 3.226 3.226 0 01-3.222 3.222 3.226 3.226 0 01-3.223-3.222 3.226 3.226 0 013.223-3.223zm67.675 19.551H6.445V87.227c0-8.712 5.049-16.666 12.89-20.399v11.285c-3.75 1.33-6.444 4.912-6.444 9.114 0 5.33 4.337 9.667 9.668 9.667 5.33 0 9.668-4.337 9.668-9.667 0-4.202-2.695-7.784-6.446-9.114V64.89a23.06 23.06 0 014.452-.189c4.966 4.01 11.263 6.411 18.107 6.411 5.958 0 11.501-1.82 16.113-4.936v5.26c-7.346 1.498-12.89 8.008-12.89 15.79v3.222a3.223 3.223 0 000 6.445h6.445a3.223 3.223 0 000-6.445v-3.222c0-5.331 4.337-9.668 9.668-9.668 5.33 0 9.668 4.337 9.668 9.668v3.222a3.223 3.223 0 000 6.445h6.445a3.223 3.223 0 000-6.445v-3.222c0-7.782-5.545-14.292-12.89-15.79v-6.546c11.126 1.57 19.335 11.214 19.335 22.336v16.328z"/></svg><svg viewBox="0 0 142 112" id="icon-endocrinology" xmlns="http://www.w3.org/2000/svg"><mask id="ga" maskUnits="userSpaceOnUse" x="0" y="0" width="142" height="112"><path d="M0 0h142v112H0z"/><path fill-rule="evenodd" clip-rule="evenodd" d="M34.507 111C18.729 111 9.816 94.784 6.715 87.813-1.895 68.514-.72 48.448 9.862 34.14c1.622-2.193 3.416-3.863 4.497-4.869.405-.377.71-.66.867-.844a30 30 0 0111.387-5.973c3.336-.913 7.631-1.015 8.823-.916 3.134.273 10.178 3.072 12.609 7.015.438.71.79 1.47 1.051 2.264a13.448 13.448 0 01-1.215 10.534c5.185-.957 11.977-3.387 11.977-9.654V6.116A5.116 5.116 0 0164.974 1H76.305a5.116 5.116 0 015.116 5.116v25.582c0 6.267 6.792 8.697 11.977 9.654a13.448 13.448 0 01-1.215-10.534c.26-.794.613-1.554 1.052-2.264 2.43-3.942 9.475-6.742 12.609-7.015 1.191-.099 5.486.003 8.823.916a30.002 30.002 0 0111.386 5.973c.157.183.462.467.867.844h.001c1.08 1.006 2.875 2.676 4.496 4.869 10.583 14.307 11.757 34.373 3.147 53.672-3.101 6.97-12.013 23.187-27.792 23.187a26.665 26.665 0 01-9.897-1.845c-.283-.103-1.018-.541-1.888-1.117-5.024-2.715-14.397-10.17-9.563-28.738a23.91 23.91 0 016.938-7.974 68.731 68.731 0 01-9.432-3.934l-.304-.154c-3.312-1.639-7.252-2.709-11.237-3.033-4.565.144-9.152 1.22-12.813 3.033l-.305.154a68.736 68.736 0 01-9.432 3.934 23.911 23.911 0 016.938 7.974c4.693 18.025-4.002 25.577-9.111 28.487-1.028.697-1.939 1.25-2.262 1.368A26.664 26.664 0 0134.507 111zm55.437-13.363c.18.23.366.474.56.729 1.53 2.011 3.554 4.668 7.056 6.036 3.298 1.289 6.473 1.5 9.212 1.481 12.765 0 20.424-14.09 23.118-20.15 7.851-17.598 6.884-35.747-2.586-48.55a24.344 24.344 0 00-21.033-10.535c-3.658.31-8.1 2.23-9.21 5.733a10.05 10.05 0 003.774 10.178 2.557 2.557 0 01-1.653 4.513c-.933 0-22.867-.202-22.867-15.374V6.116h-11.35v25.582c0 15.172-21.934 15.374-22.868 15.374a2.558 2.558 0 01-1.653-4.513 10.051 10.051 0 003.774-10.178c-1.11-3.503-5.552-5.424-9.21-5.733a24.343 24.343 0 00-21.033 10.534c-9.47 12.804-10.437 30.953-2.586 48.55 2.694 6.061 10.353 20.151 23.118 20.151 2.74.019 5.914-.192 9.212-1.481 3.503-1.368 5.526-4.025 7.057-6.036l.001-.002c.14-.184.275-.362.407-.533 1.689-4.43 2.382-9.93.157-16.137-2.502-4.413-6.087-7.339-10.465-9.132a2.558 2.558 0 011.038-4.889l.039-.003c.463-.038 5.118-.413 14.031-4.87l.307-.153a30.688 30.688 0 0114.31-3.183 30.688 30.688 0 0114.31 3.183l.306.153c8.914 4.457 13.568 4.832 14.032 4.87l.038.003a2.558 2.558 0 011.039 4.889c-4.38 1.793-7.964 4.719-10.465 9.132-2.193 6.116-1.552 11.547.083 15.943zM72.649 52.163V41.93a2.558 2.558 0 00-5.117 0v10.233a2.558 2.558 0 105.117 0zM18.08 40.223a34.558 34.558 0 00-5.991 13.58 2.558 2.558 0 002.504 3.082 2.558 2.558 0 002.5-2.047 29.573 29.573 0 015.098-11.588 14.99 14.99 0 0111.243-6.436 2.558 2.558 0 000-5.117 19.938 19.938 0 00-15.354 8.527zM125.63 78.729a34.555 34.555 0 01-5.991 13.578 19.938 19.938 0 01-15.354 8.526 2.558 2.558 0 110-5.116 14.992 14.992 0 0011.243-6.436 29.573 29.573 0 005.098-11.588 2.558 2.558 0 013.026-1.993 2.558 2.558 0 011.978 3.029z"/></mask><path fill-rule="evenodd" clip-rule="evenodd" d="M34.507 111C18.729 111 9.816 94.784 6.715 87.813-1.895 68.514-.72 48.448 9.862 34.14c1.622-2.193 3.416-3.863 4.497-4.869.405-.377.71-.66.867-.844a30 30 0 0111.387-5.973c3.336-.913 7.631-1.015 8.823-.916 3.134.273 10.178 3.072 12.609 7.015.438.71.79 1.47 1.051 2.264a13.448 13.448 0 01-1.215 10.534c5.185-.957 11.977-3.387 11.977-9.654V6.116A5.116 5.116 0 0164.974 1H76.305a5.116 5.116 0 015.116 5.116v25.582c0 6.267 6.792 8.697 11.977 9.654a13.448 13.448 0 01-1.215-10.534c.26-.794.613-1.554 1.052-2.264 2.43-3.942 9.475-6.742 12.609-7.015 1.191-.099 5.486.003 8.823.916a30.002 30.002 0 0111.386 5.973c.157.183.462.467.867.844h.001c1.08 1.006 2.875 2.676 4.496 4.869 10.583 14.307 11.757 34.373 3.147 53.672-3.101 6.97-12.013 23.187-27.792 23.187a26.665 26.665 0 01-9.897-1.845c-.283-.103-1.018-.541-1.888-1.117-5.024-2.715-14.397-10.17-9.563-28.738a23.91 23.91 0 016.938-7.974 68.731 68.731 0 01-9.432-3.934l-.304-.154c-3.312-1.639-7.252-2.709-11.237-3.033-4.565.144-9.152 1.22-12.813 3.033l-.305.154a68.736 68.736 0 01-9.432 3.934 23.911 23.911 0 016.938 7.974c4.693 18.025-4.002 25.577-9.111 28.487-1.028.697-1.939 1.25-2.262 1.368A26.664 26.664 0 0134.507 111zm55.437-13.363c.18.23.366.474.56.729 1.53 2.011 3.554 4.668 7.056 6.036 3.298 1.289 6.473 1.5 9.212 1.481 12.765 0 20.424-14.09 23.118-20.15 7.851-17.598 6.884-35.747-2.586-48.55a24.344 24.344 0 00-21.033-10.535c-3.658.31-8.1 2.23-9.21 5.733a10.05 10.05 0 003.774 10.178 2.557 2.557 0 01-1.653 4.513c-.933 0-22.867-.202-22.867-15.374V6.116h-11.35v25.582c0 15.172-21.934 15.374-22.868 15.374a2.558 2.558 0 01-1.653-4.513 10.051 10.051 0 003.774-10.178c-1.11-3.503-5.552-5.424-9.21-5.733a24.343 24.343 0 00-21.033 10.534c-9.47 12.804-10.437 30.953-2.586 48.55 2.694 6.061 10.353 20.151 23.118 20.151 2.74.019 5.914-.192 9.212-1.481 3.503-1.368 5.526-4.025 7.057-6.036l.001-.002c.14-.184.275-.362.407-.533 1.689-4.43 2.382-9.93.157-16.137-2.502-4.413-6.087-7.339-10.465-9.132a2.558 2.558 0 011.038-4.889l.039-.003c.463-.038 5.118-.413 14.031-4.87l.307-.153a30.688 30.688 0 0114.31-3.183 30.688 30.688 0 0114.31 3.183l.306.153c8.914 4.457 13.568 4.832 14.032 4.87l.038.003a2.558 2.558 0 011.039 4.889c-4.38 1.793-7.964 4.719-10.465 9.132-2.193 6.116-1.552 11.547.083 15.943zM72.649 52.163V41.93a2.558 2.558 0 00-5.117 0v10.233a2.558 2.558 0 105.117 0zM18.08 40.223a34.558 34.558 0 00-5.991 13.58 2.558 2.558 0 002.504 3.082 2.558 2.558 0 002.5-2.047 29.573 29.573 0 015.098-11.588 14.99 14.99 0 0111.243-6.436 2.558 2.558 0 000-5.117 19.938 19.938 0 00-15.354 8.527zM125.63 78.729a34.555 34.555 0 01-5.991 13.578 19.938 19.938 0 01-15.354 8.526 2.558 2.558 0 110-5.116 14.992 14.992 0 0011.243-6.436 29.573 29.573 0 005.098-11.588 2.558 2.558 0 013.026-1.993 2.558 2.558 0 011.978 3.029z"/><path d="M6.715 87.813l.914-.407-.914.407zM34.507 111l.006-1h-.006v1zM9.862 34.14l-.804-.594.804.595zm4.497-4.868l-.651-.76-.016.014-.015.014.682.732zm0 0l.65.76.016-.014.015-.014-.681-.732zm.867-.844l-.643-.765-.062.051-.052.061.757.653zm11.387-5.973l.264.965-.264-.965zm8.823-.916l.086-.996h-.003l-.083.996zm12.609 7.015l-.852.524.852-.524zm1.051 2.264l.958-.287-.004-.013-.004-.012-.95.312zm-1.215 10.534l-.868-.497-1.072 1.872 2.121-.392-.181-.983zm45.517 0l-.181.983 2.121.392-1.072-1.872-.868.497zm-1.215-10.534l-.95-.312-.004.012-.004.013.958.287zm1.052-2.264l.85.524-.85-.524zm12.609-7.015l-.083-.996h-.004l.087.996zm8.823.916l.264-.964-.264.964zm11.386 5.973l.757-.653-.052-.06-.062-.052-.643.765zm.867.844l-.681.732.006.005.006.006.669-.743zm0 0l.695-.72-.013-.012-.013-.011-.669.743zm.001 0l-.695.72.007.006.006.006.682-.732zm4.496 4.869l-.804.594.804-.594zm3.147 53.672l-.913-.408-.001.001.914.407zM106.772 111v-1h-.005l.005 1zm-9.897-1.845l.365-.931-.011-.004-.011-.004-.343.939zm-1.888-1.117l.553-.834-.038-.024-.04-.022-.475.88zM85.424 79.3l-.88-.474-.057.106-.03.116.968.252zm6.938-7.974l.59.807 1.565-1.145-1.84-.61-.315.948zm-9.432-3.934l.453-.892-.002-.001-.45.893zm-.304-.154l.45-.893-.006-.003-.444.896zm-11.237-3.033l.08-.997-.055-.005-.057.002.032 1zm-12.813 3.033l-.444-.896-.007.003.45.893zm-.305.154l-.45-.893-.002.001.452.892zm-9.432 3.934l-.315-.949-1.84.611 1.565 1.145.59-.807zm6.938 7.974l.968-.252-.03-.116-.057-.106-.881.474zm-9.111 28.487l-.495-.869-.034.02-.032.022.56.827zm-2.262 1.368l-.342-.939-.012.004-.011.004.365.931zm46.1-10.79l-.796.607.796-.606zm-.56-.728l-.938.349.055.145.095.123.788-.617zm7.617 6.765l-.364.932.364-.932zm9.211 1.481v-1h-.007l.007 1zm23.118-20.15l-.913-.407h-.001l.914.407zm-2.586-48.55l-.824.566.009.014.011.014.804-.595zm-21.033-10.535l-.04-1-.022.002-.022.001.084.997zm-9.21 5.733l-.953-.303-.014.044-.01.045.978.214zm3.774 10.178l.645-.764-.021-.018-.023-.017-.601.8zm.751 2.835l.939.343-.939-.343zm-2.404 1.678l.001-1v1zM76.315 6.116h1v-1h-1v1zm-11.35 0v-1h-1v1h1zM42.096 47.072v-1 1zm-2.404-1.678l-.94.343.94-.343zm.751-2.835l-.601-.798-.022.016-.022.018.645.764zm3.774-10.178l.976-.214-.01-.045-.013-.044-.953.303zm-9.21-5.733l.085-.997-.023-.002h-.022l-.04.999zM13.975 37.182l.804.595.01-.014.01-.014-.823-.567zm-2.586 48.55l.914-.405v-.001l-.914.407zm23.118 20.151l.007-1h-.007v1zm9.212-1.481l.364.932-.364-.932zm7.057-6.036l-.795-.607.795.607zm.001-.002l.795.607v-.002l-.795-.605zm.407-.533l.792.612.09-.117.053-.139-.935-.356zm.157-16.137l.941-.337-.029-.081-.042-.075-.87.493zm-10.465-9.132l-.413.91.017.008.017.007.379-.925zm1.038-4.889l.007 1 .256-.001.224-.125-.487-.874zm.039-.003l.08.996-.08-.996zm14.031-4.87l-.447-.894.447.894zm.307-.153l-.444-.897-.003.002.447.895zm14.31-3.183l-.023 1h.045l-.022-1zm14.31 3.183l.447-.895-.004-.002-.444.897zm.306.153l.448-.894-.448.894zm14.032 4.87l-.08.996.08-.996zm.038.003l-.486.874.224.125.256.001.006-1zm2.486 2.027l-.978.207.978-.207zm-1.447 2.862l.379.925.016-.007.017-.007-.412-.911zm-10.465 9.132l-.87-.493-.043.075-.029.08.942.338zM12.09 53.802l.978.206.002-.008-.98-.198zm5.99-13.578l.808.59.007-.01.007-.01-.821-.57zM14.068 56.83l-.206.979h.006l.2-.98zm.527.054l-.002 1h.005l-.003-1zm2.5-2.047l.98.2v-.002l-.98-.198zm5.098-11.588l.808.59.007-.011.008-.011-.823-.568zm11.243-6.436v-1h-.037l-.036.002.073.998zm0-5.117v-1h-.026l-.025.002.05.998zm86.204 60.61l-.807-.591-.007.01-.007.01.821.57zm5.991-13.58l-.979-.205-.001.008.98.198zm-21.345 22.105v1h.025l.026-.001-.051-.999zm0-5.116v1h.036l.037-.002-.073-.998zm11.243-6.436l-.808-.59-.008.011-.007.01.823.569zm5.098-11.588l-.98-.2v.002l.98.198zm2.499-2.047l.002-1h-.004l.002 1zm.527.054l.206-.979h-.005l-.201.979zM5.802 88.219c1.571 3.534 4.628 9.443 9.323 14.483C19.824 107.746 26.243 112 34.507 112v-2c-7.514 0-13.441-3.855-17.918-8.661-4.481-4.811-7.43-10.495-8.96-13.933l-1.827.813zm3.256-54.673C-1.783 48.203-2.922 68.666 5.802 88.22l1.827-.815C-.868 68.362.34 48.693 10.666 34.735l-1.608-1.19zm4.62-5.006c-1.083 1.007-2.938 2.732-4.62 5.006l1.608 1.19c1.561-2.112 3.295-3.727 4.374-4.732l-1.363-1.464zm.03-.027l1.301 1.518-1.301-1.518zm.761-.738c-.112.13-.362.365-.792.765l1.363 1.464c.381-.355.74-.687.944-.923l-1.515-1.306zm11.88-6.284a31.002 31.002 0 00-11.766 6.172l1.287 1.53a29 29 0 0111.007-5.773l-.528-1.93zm9.17-.948c-1.288-.107-5.703-.002-9.17.948l.528 1.929c3.205-.878 7.38-.975 8.476-.884l.166-1.993zm13.377 7.486c-1.362-2.209-3.931-3.998-6.445-5.253-2.526-1.261-5.196-2.082-6.929-2.233l-.173 1.992c1.4.122 3.82.838 6.208 2.03 2.4 1.198 4.568 2.78 5.636 4.513l1.703-1.05zm1.15 2.477c-.285-.868-.67-1.7-1.15-2.477l-1.703 1.05c.397.643.717 1.332.953 2.05l1.9-.623zM48.75 41.849a14.448 14.448 0 001.305-11.318l-1.916.573c.976 3.267.57 6.792-1.125 9.751l1.736.994zm10.11-10.151c0 2.695-1.433 4.59-3.586 5.977-2.185 1.407-5.03 2.224-7.574 2.694l.363 1.966c2.642-.487 5.786-1.364 8.293-2.978 2.539-1.634 4.503-4.088 4.503-7.66h-2zm0-25.582v25.582h2V6.116h-2zM64.973 0a6.116 6.116 0 00-6.116 6.116h2A4.116 4.116 0 0164.974 2V0zm1.098 0h-1.098v2h1.098V0zm9.135 0h-9.135v2h9.135V0zm1.098 0h-1.098v2h1.098V0zm6.116 6.116A6.116 6.116 0 0076.305 0v2a4.116 4.116 0 014.116 4.116h2zm0 25.582V6.116h-2v25.582h2zm11.159 8.67c-2.544-.469-5.389-1.286-7.573-2.693-2.154-1.386-3.586-3.282-3.586-5.977h-2c0 3.571 1.964 6.025 4.503 7.659 2.507 1.614 5.651 2.49 8.293 2.978l.363-1.967zm-2.355-9.837a14.448 14.448 0 001.306 11.318l1.735-.994a12.448 12.448 0 01-1.125-9.751l-1.916-.573zm1.158-2.502c-.479.777-.865 1.609-1.15 2.477l1.9.623a9.632 9.632 0 01.953-2.05l-1.703-1.05zm13.374-7.486c-1.733.15-4.403.972-6.928 2.233-2.515 1.255-5.084 3.044-6.446 5.253l1.703 1.05c1.069-1.734 3.237-3.316 5.636-4.514 2.388-1.192 4.807-1.908 6.208-2.03l-.173-1.992zm9.174.948c-3.468-.95-7.883-1.055-9.17-.948l.166 1.993c1.095-.091 5.27.006 8.476.884l.528-1.93zm11.765 6.172a30.993 30.993 0 00-11.765-6.172l-.528 1.929a28.995 28.995 0 0111.006 5.774l1.287-1.531zm.906.877c-.43-.4-.68-.635-.792-.765l-1.514 1.306c.203.236.562.568.943.923l1.363-1.464zm-.013-.011l-1.338 1.486 1.338-1.486zm.026.023l-1.389 1.44 1.389-1.44zm4.606 4.994c-1.682-2.274-3.537-3.999-4.619-5.006l-1.363 1.464c1.079 1.005 2.813 2.62 4.374 4.731l1.608-1.19zm3.256 54.674c8.725-19.554 7.586-40.017-3.256-54.674l-1.608 1.19c10.325 13.958 11.534 33.626 3.038 52.67l1.826.814zM106.772 112c8.264 0 14.683-4.254 19.382-9.298 4.695-5.04 7.752-10.95 9.323-14.483l-1.827-.813c-1.529 3.438-4.478 9.122-8.959 13.933-4.478 4.806-10.404 8.661-17.919 8.661v2zm-10.263-1.914A27.669 27.669 0 00106.778 112l-.011-2a25.661 25.661 0 01-9.527-1.776l-.73 1.862zm-2.074-1.214c.444.294.86.557 1.206.762.32.19.65.373.891.461l.686-1.879-.044-.02a3.535 3.535 0 01-.124-.062 9.915 9.915 0 01-.389-.22c-.31-.184-.696-.428-1.121-.71l-1.105 1.668zm-9.978-29.824c-2.468 9.48-1.336 16.247 1.166 21.029 2.491 4.763 6.274 7.428 8.889 8.841l.95-1.76c-2.41-1.302-5.825-3.722-8.067-8.008-2.232-4.266-3.369-10.51-1.003-19.598l-1.935-.504zm7.314-8.529a24.912 24.912 0 00-7.227 8.307l1.761.947a22.91 22.91 0 016.648-7.64L91.77 70.52zm-9.293-2.235a69.723 69.723 0 009.569 3.991l.63-1.898a67.734 67.734 0 01-9.294-3.877l-.905 1.784zm-.302-.153l.304.154.9-1.786-.304-.154-.9 1.786zm-10.868-2.93c3.868.315 7.684 1.354 10.874 2.934l.888-1.793c-3.433-1.699-7.497-2.8-11.6-3.134l-.162 1.993zm-12.289 2.934c3.517-1.741 7.96-2.79 12.401-2.93l-.063-2c-4.688.148-9.419 1.253-13.225 3.137l.887 1.793zm-.298.15l.305-.154-.9-1.786-.305.154.9 1.786zm-9.566 3.99a69.722 69.722 0 009.569-3.991l-.905-1.784a67.727 67.727 0 01-9.295 3.877l.63 1.898zm7.503 6.551a24.91 24.91 0 00-7.228-8.307l-1.181 1.614a22.91 22.91 0 016.647 7.64l1.762-.947zm-9.497 29.83c2.661-1.515 6.29-4.259 8.633-9.001 2.35-4.759 3.346-11.406.95-20.607l-1.935.504c2.297 8.824 1.292 14.965-.808 19.217-2.109 4.268-5.382 6.755-7.83 8.149l.99 1.738zm-2.414 1.439c.268-.098.658-.319 1.042-.551.414-.251.914-.573 1.438-.929l-1.122-1.655c-.504.341-.974.644-1.352.873-.19.115-.351.208-.479.277a4.39 4.39 0 01-.155.08c-.042.02-.06.026-.057.026l.685 1.879zM34.501 112c3.514.02 6.999-.63 10.269-1.914l-.731-1.862A25.661 25.661 0 0134.513 110l-.012 2zM91.3 97.76a70.05 70.05 0 00-.568-.74l-1.575 1.234c.176.223.357.462.552.718l1.591-1.212zm6.625 5.711c-3.212-1.255-5.086-3.69-6.625-5.711l-1.591 1.212c1.523 2.001 3.695 4.879 7.489 6.362l.727-1.863zm8.841 1.412c-2.684.018-5.713-.19-8.84-1.412l-.728 1.863c3.467 1.354 6.787 1.568 9.582 1.549l-.014-2zm22.211-19.556c-1.327 2.986-3.865 7.916-7.612 12.085-3.75 4.172-8.607 7.471-14.592 7.471v2c6.78 0 12.135-3.746 16.08-8.134 3.947-4.391 6.585-9.535 7.952-12.61l-1.828-.812zm-2.476-47.55c9.207 12.448 10.217 30.199 2.477 47.549l1.826.814c7.962-17.845 7.038-36.394-2.695-49.553l-1.608 1.19zm-20.189-10.13a23.344 23.344 0 0120.169 10.102l1.648-1.133a25.343 25.343 0 00-21.897-10.967l.08 1.998zm-8.296 5.036c.452-1.427 1.611-2.612 3.185-3.494 1.568-.879 3.451-1.4 5.155-1.545l-.168-1.993c-1.955.166-4.12.76-5.965 1.794-1.84 1.031-3.456 2.558-4.114 4.633l1.907.605zm3.421 9.078a9.051 9.051 0 01-3.398-9.167l-1.953-.427a11.051 11.051 0 004.148 11.191l1.203-1.597zm1.089 3.976a3.557 3.557 0 00-1.045-3.942l-1.29 1.528c.5.423.682 1.112.457 1.727l1.878.687zm-3.344 2.335a3.556 3.556 0 003.344-2.335l-1.878-.687a1.558 1.558 0 01-1.464 1.022l-.002 2zM75.316 31.698c0 8.227 6.005 12.322 11.755 14.32 5.76 2.004 11.613 2.054 12.112 2.054v-2c-.434 0-6.016-.051-11.455-1.942-5.45-1.895-10.412-5.488-10.412-12.432h-2zm0-25.582v25.582h2V6.116h-2zm-10.35 1h11.35v-2h-11.35v2zm1 24.582V6.116h-2v25.582h2zM42.096 48.072c.5 0 6.351-.05 12.112-2.053 5.75-2 11.755-6.094 11.755-14.321h-2c0 6.944-4.962 10.537-10.412 12.432-5.44 1.891-11.021 1.942-11.455 1.942v2zm-3.343-2.335a3.558 3.558 0 003.344 2.335l-.002-2c-.654 0-1.24-.408-1.464-1.022l-1.878.687zm1.045-3.942a3.558 3.558 0 00-1.045 3.942l1.878-.687a1.558 1.558 0 01.458-1.727l-1.29-1.528zm3.442-9.2a9.051 9.051 0 01-3.398 9.166l1.203 1.597a11.05 11.05 0 004.148-11.191l-1.953.427zm-8.317-4.95c1.704.143 3.588.665 5.155 1.544 1.574.882 2.733 2.067 3.185 3.494l1.907-.605c-.658-2.075-2.274-3.602-4.113-4.633-1.845-1.035-4.011-1.628-5.965-1.794l-.169 1.993zM14.8 37.748a23.343 23.343 0 0120.168-10.102l.08-1.998a25.343 25.343 0 00-21.897 10.967l1.649 1.133zm-2.498 47.577c-7.74-17.35-6.73-35.101 2.477-47.55l-1.607-1.189C3.438 49.748 2.514 68.296 10.476 86.14l1.826-.814zm22.205 19.557c-5.985 0-10.842-3.299-14.592-7.47-3.747-4.17-6.285-9.1-7.612-12.086l-1.828.812c1.367 3.075 4.006 8.219 7.953 12.61 3.944 4.388 9.299 8.134 16.079 8.134v-2zm8.848-1.412c-3.127 1.222-6.157 1.43-8.841 1.412l-.014 2c2.795.019 6.115-.195 9.583-1.549l-.728-1.863zm6.625-5.711c-1.539 2.02-3.413 4.456-6.625 5.711l.728 1.863c3.793-1.483 5.965-4.361 7.488-6.362l-1.59-1.212zm.003-.004l-.002.003 1.59 1.214v-.002l-1.588-1.215zm.41-.536c-.135.174-.272.355-.411.538l1.59 1.211.404-.526-1.583-1.223zm.006-15.188c2.132 5.944 1.47 11.196-.149 15.443l1.869.712c1.758-4.612 2.483-10.362.163-16.83l-1.883.675zm-9.902-8.545c4.188 1.716 7.592 4.497 9.974 8.7l1.74-.986c-2.621-4.624-6.387-7.693-10.956-9.564l-.758 1.85zm-2.047-3.995a3.558 3.558 0 002.013 3.98l.825-1.821a1.558 1.558 0 01-.881-1.743l-1.957-.416zm3.458-2.819a3.558 3.558 0 00-3.458 2.819l1.957.415a1.558 1.558 0 011.514-1.234l-.013-2zm-.036 0l-.038.003-.04.004a1.033 1.033 0 00-.366.12l.973 1.747a1.009 1.009 0 01-.379.12h-.006.017l-.16-1.994zm13.665-4.767c-8.8 4.4-13.331 4.74-13.665 4.767l.161 1.993c.593-.047 5.372-.459 14.398-4.972l-.894-1.788zm.307-.154l-.307.154.894 1.788.307-.153-.894-1.789zm14.779-3.287a31.688 31.688 0 00-14.776 3.285l.888 1.793a29.688 29.688 0 0113.843-3.079l.045-2zm14.731 3.285a31.688 31.688 0 00-14.776-3.285l.045 2c4.734-.106 9.487.92 13.843 3.078l.888-1.793zm.31.156l-.306-.154-.895 1.789.307.153.895-1.788zm13.665 4.767c-.334-.027-4.864-.367-13.664-4.767l-.895 1.788c9.026 4.513 13.805 4.924 14.398 4.972l.161-1.993zm.444.126a1.001 1.001 0 00-.365-.119l-.04-.004-.04-.003-.16 1.993.018.002h-.007a.845.845 0 01-.149-.028 1.048 1.048 0 01-.23-.093l.973-1.748zm2.978 2.693a3.557 3.557 0 00-3.458-2.819l-.012 2a1.558 1.558 0 011.514 1.234l1.956-.415zm-2.013 3.98a3.557 3.557 0 002.013-3.98l-1.956.415a1.559 1.559 0 01-.882 1.744l.825 1.822zm-10.007 8.715c2.382-4.203 5.785-6.984 9.974-8.7l-.758-1.85c-4.57 1.871-8.336 4.94-10.956 9.564l1.74.986zm.15 15.102c-1.567-4.214-2.18-9.4-.079-15.257l-1.883-.675c-2.285 6.374-1.615 12.05.088 16.629l1.874-.697zM71.65 41.93v10.233h2V41.93h-2zm-1.559-1.558c.861 0 1.559.698 1.559 1.558h2a3.558 3.558 0 00-3.559-3.558v2zm-1.558 1.558c0-.86.698-1.558 1.558-1.558v-2a3.558 3.558 0 00-3.558 3.558h2zm0 10.233V41.93h-2v10.233h2zm1.558 1.558c-.86 0-1.558-.698-1.558-1.558h-2a3.558 3.558 0 003.558 3.558v-2zm1.559-1.558c0 .86-.698 1.558-1.559 1.558v2a3.558 3.558 0 003.559-3.558h-2zM13.069 54a33.559 33.559 0 015.819-13.186l-1.614-1.181a35.557 35.557 0 00-6.165 13.971l1.96.396zm1.204 1.852a1.558 1.558 0 01-1.205-1.844l-1.957-.411a3.558 3.558 0 002.75 4.213l.412-1.958zm.322.033c-.11 0-.22-.012-.328-.034l-.4 1.96c.239.048.482.073.725.074l.003-2zm1.518-1.247a1.558 1.558 0 01-1.522 1.247l.006 2a3.558 3.558 0 003.476-2.847l-1.96-.4zm5.27-11.977a30.574 30.574 0 00-5.27 11.98l1.96.395A28.575 28.575 0 0123 43.839l-1.616-1.178zm11.979-6.845a15.991 15.991 0 00-11.993 6.866l1.646 1.136a13.99 13.99 0 0110.493-6.007l-.146-1.995zm1.63-1.56c0 .86-.697 1.558-1.557 1.558v2a3.558 3.558 0 003.558-3.559h-2zm-1.557-1.559c.86 0 1.558.698 1.558 1.558h2a3.558 3.558 0 00-3.558-3.558v2zm-14.533 8.098a18.938 18.938 0 0114.584-8.099l-.102-1.997a20.938 20.938 0 00-16.124 8.954l1.642 1.142zm101.544 52.102a35.567 35.567 0 006.164-13.972l-1.96-.395a33.571 33.571 0 01-5.818 13.186l1.614 1.18zm-16.11 8.934a20.938 20.938 0 0016.124-8.954l-1.642-1.142a18.94 18.94 0 01-14.584 8.099l.102 1.997zm-3.609-3.557a3.558 3.558 0 003.558 3.558v-2a1.558 1.558 0 01-1.558-1.558h-2zm3.558-3.558a3.558 3.558 0 00-3.558 3.558h2c0-.86.697-1.558 1.558-1.558v-2zm10.42-6.004a13.992 13.992 0 01-10.493 6.007l.146 1.995a15.992 15.992 0 0011.993-6.866l-1.646-1.136zm4.941-11.218a28.58 28.58 0 01-4.926 11.197l1.616 1.178a30.566 30.566 0 005.27-11.98l-1.96-.395zm3.477-2.849a3.56 3.56 0 00-3.477 2.847l1.96.4a1.558 1.558 0 011.522-1.247l-.005-2zm.73.074a3.643 3.643 0 00-.726-.074l-.003 2c.11 0 .22.011.328.034l.401-1.96zm2.755 4.214a3.557 3.557 0 00-2.75-4.213l-.411 1.957a1.558 1.558 0 011.204 1.845l1.957.411z" mask="url(#ga)"/></svg><svg viewBox="0 0 110 102" id="icon-exotic-animals" xmlns="http://www.w3.org/2000/svg"><path d="M110 66.804a3.29 3.29 0 00-3.289-3.289h-1.027l.451-.452a3.289 3.289 0 10-4.651-4.651l-5.104 5.103h-.151a13.258 13.258 0 01-10.11-4.669l-4.493-5.275c3.091-4.208 5.55-9.172 7.352-14.856 5.166-1.83 8.828-4.837 10.894-8.953 3.659-7.291 4.953-24.119-3.989-28.64-3.99-2.018-9.154-1.298-14.542 2.026-4.261 2.628-8.173 6.62-10.208 10.42-3.887 7.252-2.363 13.647-1.382 16.347-1.078 3.41-2.49 6.352-4.224 8.834l-4.032-3.434a13.258 13.258 0 01-4.668-10.109v-.151l5.103-5.103a3.29 3.29 0 00-4.652-4.652l-.452.451v-1.027a3.29 3.29 0 00-6.578 0v1.027l-.452-.451a3.29 3.29 0 00-4.651 4.652l5.103 5.103v.151a19.828 19.828 0 006.981 15.117l3.815 3.25c-5.412 4.325-12.734 5.89-21.921 4.65a38.342 38.342 0 00-2.29-.237l-5.106-5.995a19.828 19.828 0 00-15.117-6.98h-.152l-5.103-5.104a3.29 3.29 0 00-4.652 4.652l.452.452H6.128a3.29 3.29 0 000 6.578h1.027l-.452.452a3.29 3.29 0 004.652 4.652l5.104-5.104h.151c3.897 0 7.582 1.702 10.108 4.669l1.725 2.024a36.27 36.27 0 00-6.221 1.48c-5.519 1.845-10.496 5.051-14.394 9.27-6.721 7.272-9.183 16.342-7.119 26.23 1.52 7.281 4.986 12.44 5.133 12.656a3.29 3.29 0 005.99-1.48c.017-.15 1.8-15.108 11.008-23.571 1.173-1.078 5.606-4.513 13.424-3.458a75.85 75.85 0 007.94.661l4.647 6.1a13.258 13.258 0 012.413 10.87l-.033.149-6.071 3.901a3.29 3.29 0 103.556 5.535l.537-.345-.218 1.003a3.29 3.29 0 006.428 1.4l.219-1.004.345.537a3.286 3.286 0 004.545.99 3.29 3.29 0 00.99-4.546l-3.902-6.072.032-.148a19.828 19.828 0 00-3.607-16.256l-1.827-2.397c8.479-.89 15.764-3.678 21.761-8.349a38.644 38.644 0 003.25-2.839l3.844 4.514a19.827 19.827 0 0015.117 6.98h.151l5.103 5.104a3.281 3.281 0 002.327.964 3.289 3.289 0 002.325-5.615l-.451-.452h1.027a3.289 3.289 0 003.288-3.29zm-63.79-3.273c-2.87 0-5.894-.214-9.066-.642-10.364-1.398-16.57 3.125-18.756 5.134-5.628 5.174-8.904 12.115-10.772 17.755-1.679-6.149-1.97-14.694 5.043-22.282 5.421-5.866 12.977-9.05 21.198-9.05 1.444 0 2.909.098 4.386.297 12.744 1.72 22.966-1.39 29.958-8.881a3.35 3.35 0 00.273-.282c.026-.032.048-.065.073-.096 3.472-3.852 6.121-8.814 7.853-14.833a3.29 3.29 0 00-.247-2.436c-.027-.051-2.579-5.276.779-11.54C80.025 10.9 88.814 4.918 92.915 6.991c1.734.877 2.933 3.991 3.129 8.126.197 4.156-.628 8.856-2.052 11.693-2.075 4.135-6.592 5.53-8.077 5.99-.789.243-2.257.697-2.76 2.443-5.412 18.802-17.82 28.288-36.946 28.287z"/></svg><svg viewBox="0 0 40 40" id="icon-fb" xmlns="http://www.w3.org/2000/svg"><path fill-rule="evenodd" clip-rule="evenodd" d="M0 20C0 8.955 8.955 0 20 0s20 8.953 20 20c0 11.045-8.955 20-20 20S0 31.045 0 20zm21.892 0l3.278-.003.437-4.134h-3.72l.005-2.07c0-1.078.075-1.655 1.623-1.655h2.07V8h-3.31c-3.973 0-4.888 2.053-4.888 5.428l.005 2.434-3 .003V20h3v12h4.498l.002-12z"/></svg><svg viewBox="0 0 110 97" id="icon-grooming" xmlns="http://www.w3.org/2000/svg"><path d="M54.785 64.453c-.772 0-1.531.058-2.275.164L45.536 49.2 57.7 21.893c3.904-7.898.758-17.553-7.24-21.553a3.223 3.223 0 00-4.377 1.555L35.11 26.155 24.135 1.895A3.223 3.223 0 0019.758.34C11.754 4.342 8.615 14 12.518 21.894L24.696 49.18l-6.945 15.356a16.244 16.244 0 00-1.638-.083C7.228 64.453 0 71.682 0 80.567 0 89.45 7.228 96.68 16.113 96.68s16.114-7.229 16.114-16.114c0-.456-.024-.907-.062-1.355l2.965-6.653 3.544 7.94-.002.069c0 8.884 7.228 16.113 16.113 16.113s16.113-7.229 16.113-16.114c0-8.884-7.228-16.113-16.113-16.113zM18.376 19.206a3.305 3.305 0 00-.06-.128c-1.892-3.784-1.048-8.117 1.576-10.926l11.682 25.823-3.325 7.351-9.873-22.12zm-2.263 71.028c-5.33 0-9.668-4.337-9.668-9.667 0-5.331 4.337-9.668 9.668-9.668 5.331 0 9.668 4.337 9.668 9.668 0 5.33-4.337 9.668-9.668 9.668zM28.88 70.751a16.233 16.233 0 00-4.938-4.261L50.328 8.153c2.642 2.828 3.456 7.165 1.576 10.925a3.197 3.197 0 00-.062.13L28.88 70.75zm12.743.54l-2.966-6.647 3.37-7.565 4.396 9.72a16.238 16.238 0 00-4.8 4.491zm13.163 18.944c-5.33 0-9.668-4.338-9.668-9.668 0-5.331 4.337-9.668 9.668-9.668 5.331 0 9.668 4.337 9.668 9.668 0 5.33-4.337 9.668-9.668 9.668zM100.332 0H80.996a3.223 3.223 0 000 6.445h9.668v6.446h-9.668a3.223 3.223 0 000 6.445h9.668v6.445h-9.668a3.223 3.223 0 000 6.446h9.668v6.445h-9.668a3.223 3.223 0 000 6.445h9.668v6.446h-9.668a3.223 3.223 0 000 6.445h9.668v6.445h-9.668a3.223 3.223 0 000 6.445h9.668v6.446h-9.668a3.223 3.223 0 100 6.445h9.668v6.445h-9.668a3.223 3.223 0 000 6.446h19.336c5.331 0 9.668-4.337 9.668-9.668V9.668C110 4.338 105.663 0 100.332 0zm3.223 87.012a3.227 3.227 0 01-3.223 3.222h-3.223V6.445h3.223a3.227 3.227 0 013.223 3.223v77.344z"/></svg><svg viewBox="0 0 40 40" id="icon-inst" xmlns="http://www.w3.org/2000/svg"><path fill-rule="evenodd" clip-rule="evenodd" d="M20 0C8.956 0 0 8.956 0 20s8.956 20 20 20 20-8.956 20-20S31.044 0 20 0zm11.415 24.735c-.055 1.222-.25 2.057-.534 2.788a5.872 5.872 0 01-3.358 3.358c-.73.284-1.566.478-2.788.534-1.225.056-1.616.07-4.735.07s-3.51-.014-4.735-.07c-1.222-.056-2.057-.25-2.787-.534a5.626 5.626 0 01-2.035-1.324 5.628 5.628 0 01-1.324-2.034c-.284-.73-.478-1.566-.534-2.788-.056-1.225-.07-1.616-.07-4.735s.014-3.51.07-4.735c.055-1.222.25-2.057.533-2.788.289-.766.741-1.46 1.325-2.034a5.625 5.625 0 012.034-1.324c.731-.284 1.566-.478 2.788-.534 1.225-.056 1.616-.07 4.735-.07s3.51.014 4.735.07c1.222.056 2.057.25 2.788.533a5.63 5.63 0 012.034 1.325 5.626 5.626 0 011.324 2.034c.285.731.479 1.566.534 2.788.056 1.225.07 1.616.07 4.735s-.014 3.51-.07 4.735zm-2.52-11.44c-.185-.501-.48-.955-.863-1.327a3.571 3.571 0 00-1.326-.863c-.407-.158-1.018-.346-2.142-.397-1.217-.055-1.582-.067-4.662-.067-3.081 0-3.446.011-4.662.067-1.125.051-1.736.24-2.142.397a3.57 3.57 0 00-1.327.863 3.577 3.577 0 00-.863 1.327c-.158.406-.346 1.017-.397 2.142-.056 1.216-.068 1.581-.068 4.662 0 3.08.012 3.445.068 4.662.051 1.125.239 1.735.397 2.142.185.501.48.954.863 1.326.372.384.825.679 1.326.863.407.159 1.018.347 2.143.398 1.216.055 1.58.067 4.661.067 3.081 0 3.446-.012 4.662-.067 1.125-.051 1.736-.24 2.143-.398a3.82 3.82 0 002.19-2.19c.157-.406.345-1.016.396-2.141.056-1.217.068-1.582.068-4.662s-.012-3.446-.067-4.662c-.052-1.125-.24-1.736-.398-2.142zm-8.993 12.727a5.924 5.924 0 11-.001-11.848 5.924 5.924 0 010 11.848zm4.773-12.082a1.385 1.385 0 102.77 0 1.385 1.385 0 00-2.77 0zM23.843 20a3.842 3.842 0 11-7.684 0 3.842 3.842 0 017.684 0z"/></svg><svg viewBox="0 0 110 110" id="icon-laboratory" xmlns="http://www.w3.org/2000/svg"><path d="M100.332 45.117h-3.223V18.784c3.752-1.33 6.446-4.914 6.446-9.116 0-5.33-4.337-9.668-9.668-9.668H68.106c-5.331 0-9.668 4.337-9.668 9.668 0 4.202 2.693 7.786 6.445 9.116v26.333H45.117V18.784c3.752-1.33 6.446-4.914 6.446-9.116 0-5.33-4.338-9.668-9.669-9.668h-25.78c-5.332 0-9.669 4.337-9.669 9.668 0 4.202 2.694 7.786 6.446 9.116v26.333H9.668C4.338 45.117 0 49.454 0 54.785v45.547C0 105.663 4.337 110 9.668 110h90.664c5.331 0 9.668-4.337 9.668-9.668V54.785c0-5.33-4.337-9.668-9.668-9.668zM68.106 6.445h25.78a3.226 3.226 0 013.223 3.223 3.226 3.226 0 01-3.222 3.223 3.223 3.223 0 00-3.223 3.222v16.114h-9.668a3.223 3.223 0 000 6.445h9.668v6.445H71.328V16.113a3.223 3.223 0 00-3.222-3.222 3.226 3.226 0 01-3.223-3.223 3.226 3.226 0 013.223-3.223zm12.89 58.008h9.668v16.543c0 5.331-4.337 9.668-9.668 9.668-5.33 0-9.668-4.337-9.668-9.668V51.563h19.336v6.445h-9.668a3.223 3.223 0 000 6.445zM16.113 6.445h25.782a3.226 3.226 0 013.222 3.223 3.226 3.226 0 01-3.222 3.223 3.223 3.223 0 00-3.223 3.222v16.114h-9.668a3.223 3.223 0 000 6.445h9.668v6.445H19.336V16.113a3.223 3.223 0 00-3.223-3.222 3.226 3.226 0 01-3.222-3.223 3.226 3.226 0 013.222-3.223zm12.89 58.008h9.669v16.543c0 5.331-4.337 9.668-9.668 9.668-5.331 0-9.668-4.337-9.668-9.668V51.563h19.336v6.445h-9.668a3.223 3.223 0 000 6.445zm74.552 35.879a3.227 3.227 0 01-3.223 3.223H9.668a3.227 3.227 0 01-3.223-3.223V54.785a3.226 3.226 0 013.223-3.222h3.223v29.433c0 8.885 7.228 16.113 16.113 16.113s16.113-7.228 16.113-16.113V51.563h19.766v29.433c0 8.885 7.228 16.113 16.113 16.113S97.11 89.881 97.11 80.996V51.563h3.223a3.227 3.227 0 013.223 3.222v45.547z"/></svg><svg viewBox="0 0 20 30" id="icon-map-mark" xmlns="http://www.w3.org/2000/svg"><path d="M19.527 7.226c-.103-.388-.313-.8-.468-1.162C17.201 1.6 13.142 0 9.865 0 5.477 0 .645 2.942 0 9.006v1.24c0 .05.018.515.043.747.362 2.89 2.642 5.962 4.345 8.852 1.833 3.096 3.734 6.142 5.618 9.187 1.161-1.987 2.319-4 3.454-5.935.309-.568.668-1.136.978-1.678.206-.361.6-.722.78-1.058C17.052 17.006 20 13.626 20 10.297V8.929c0-.36-.447-1.625-.473-1.703zm-9.582 6.22c-1.29 0-2.701-.646-3.398-2.427-.104-.283-.095-.851-.095-.903v-.8c0-2.27 1.927-3.303 3.604-3.303 2.065 0 3.662 1.652 3.662 3.716 0 2.065-1.708 3.716-3.773 3.716z"/></svg><svg viewBox="0 0 20 30" id="icon-marker" xmlns="http://www.w3.org/2000/svg"><path d="M19.527 7.226c-.103-.388-.313-.8-.468-1.162C17.201 1.6 13.142 0 9.865 0 5.477 0 .645 2.942 0 9.006v1.24c0 .05.018.515.043.747.362 2.89 2.642 5.962 4.345 8.852 1.833 3.096 3.734 6.142 5.618 9.187 1.161-1.987 2.319-4 3.454-5.935.309-.568.668-1.136.978-1.678.206-.361.6-.722.78-1.058C17.052 17.006 20 13.626 20 10.297V8.929c0-.36-.447-1.625-.473-1.703zm-9.582 6.22c-1.29 0-2.701-.646-3.398-2.427-.104-.283-.095-.851-.095-.903v-.8c0-2.27 1.927-3.303 3.604-3.303 2.065 0 3.662 1.652 3.662 3.716 0 2.065-1.708 3.716-3.773 3.716z"/></svg><svg viewBox="0 0 110 110" id="icon-neurology" xmlns="http://www.w3.org/2000/svg"><path d="M83.992 34.951a29.065 29.065 0 00-.41-4.399c7.662 5.266 16.211 2.493 19.157-5.104 3.601-9.286-4.843-19.185-15.087-23.39-9.035-3.708-19.006-2.735-24.277 5.63a28.908 28.908 0 00-8.379-1.235 28.9 28.9 0 00-8.38 1.236c-5.27-8.366-15.24-9.339-24.276-5.63C12.096 6.263 3.653 16.162 7.254 25.449c2.939 7.58 11.477 10.381 19.157 5.103a29.052 29.052 0 00-.41 4.4C16.363 36.935 0 41.736 0 51.566c0 2.12.795 4.048 2.09 5.737l.004.006v.001l23.9 31.224v11.798c0 1.168.632 2.244 1.652 2.813.5.28 12.445 6.854 27.35 6.854 14.905 0 26.85-6.574 27.35-6.854a3.222 3.222 0 001.652-2.813V88.535l23.9-31.225c1.289-1.657 2.094-3.634 2.094-5.744 0-9.826-16.351-14.628-26-16.615zm1.213-26.93c7.23 2.968 13.58 9.796 11.525 15.098-1.778 4.585-7 5.208-11.73.19l-.046-.05c-2.952-3.132-6.59-6.991-9.888-8.72a29.177 29.177 0 00-5.66-4.246c4.7-6.137 13.1-3.38 15.799-2.272zm-30.209 4.877c12.438 0 22.557 10.119 22.557 22.557v12.89c0 5.705-2.101 11.08-5.938 15.251-4.154.448-8.636.738-13.397.83v-8.302l5.501-5.5a3.223 3.223 0 00-2.278-5.502H48.55a3.223 3.223 0 00-2.279 5.501l5.502 5.501v8.3c-4.795-.09-9.318-.388-13.398-.828-3.836-4.171-5.937-9.546-5.937-15.252v-12.89c0-12.437 10.119-22.556 22.557-22.556zM25.036 23.26l-.045.048c-4.728 5.018-9.95 4.396-11.729-.19-2.082-5.37 4.427-12.185 11.525-15.098 2.7-1.108 11.1-3.865 15.798 2.272a29.168 29.168 0 00-5.66 4.246c-3.298 1.73-6.937 5.59-9.888 8.722zM6.696 52.571c-.168-.354-.25-.682-.25-1.004 0-2.34 5.385-6.919 19.549-10.029v6.806c0 4.977 1.245 9.757 3.584 13.992-5.866-1.066-20.361-4.464-22.883-9.764zm10.018 13.235c6.505 2.116 14.59 3.657 23.625 4.461L43.45 89.25c-6.061-1.44-10.589-3.566-12.108-4.332L16.713 65.806zm60.84 32.537c-3.531 1.651-12.331 5.212-22.557 5.212-10.177 0-19.014-3.567-22.557-5.217v-5.85c4.915 2.002 13.146 4.622 22.557 4.622 9.411 0 17.642-2.62 22.557-4.623v5.856zm1.095-13.422c-2.378 1.205-12.106 5.745-23.652 5.745-1.649 0-3.263-.094-4.825-.258l-3.229-19.694c2.628.124 5.317.188 8.054.188 14.925 0 28.422-1.888 38.283-5.095L78.649 84.92zm24.141-31.54c-2.567 3.34-10.561 6.809-22.375 8.955 2.34-4.235 3.584-9.015 3.584-13.992V41.54c14.164 3.11 19.549 7.688 19.549 10.028 0 .434-.153 1.028-.758 1.814z"/></svg><svg viewBox="0 0 110 110" id="icon-oncology" xmlns="http://www.w3.org/2000/svg"><path d="M109.057.944a3.223 3.223 0 00-4.558 0L89.424 16.019c-3.593-1.712-8.031-1.084-11.002 1.887l-7.228 7.228c-3.593-1.712-8.032-1.084-11.002 1.887L28.812 58.4a31.608 31.608 0 00-11.907-2.309h-.01c-5.33 0-9.667 4.337-9.667 9.668 0 5.33 4.337 9.667 9.667 9.667 1.187 0 2.364.178 3.493.513L7.78 88.547 5.501 86.27a3.222 3.222 0 10-4.557 4.557l18.23 18.23a3.222 3.222 0 104.558-4.557l-2.28-2.279L34.06 89.612a12.28 12.28 0 01.513 3.493 9.604 9.604 0 002.831 6.836 9.607 9.607 0 006.836 2.831c5.33 0 9.667-4.337 9.667-9.667a31.612 31.612 0 00-2.309-11.916L82.98 49.808a9.67 9.67 0 001.891-11.006l7.224-7.224a9.67 9.67 0 001.891-11.006L109.056 5.5a3.222 3.222 0 00.001-4.557zM16.896 97.662l-4.558-4.557 13.673-13.673 4.558 4.558-13.673 13.672zm27.345-1.335a3.218 3.218 0 01-3.222-3.222c0-5.045-2.095-9.875-5.501-13.28l-5.341-5.342c-3.398-3.398-8.225-5.501-13.28-5.501a3.226 3.226 0 01-3.223-3.222 3.226 3.226 0 013.223-3.222h.008c6.733 0 13.065 2.624 17.83 7.388l5.34 5.34c4.766 4.767 7.39 11.102 7.388 17.839a3.226 3.226 0 01-3.222 3.222zM57.914 65.76l-2.279-2.28a3.222 3.222 0 10-4.557 4.558l2.278 2.28-4.943 4.943a32.062 32.062 0 00-3.78-4.552l-5.341-5.341a32.026 32.026 0 00-4.552-3.78L48.8 47.53 62.47 61.202l-4.557 4.558zm20.508-20.51l-2.278 2.28-2.28-2.279a3.223 3.223 0 00-4.557 4.558l2.28 2.279-4.559 4.557-13.672-13.673L64.75 31.578a3.227 3.227 0 014.557 0l9.115 9.115a3.22 3.22 0 010 4.558zm9.115-18.23l-6.836 6.837-4.557-4.557 6.836-6.837a3.227 3.227 0 014.557 0 3.22 3.22 0 010 4.558z"/></svg><svg viewBox="0 0 110 110" id="icon-ophthalmology" xmlns="http://www.w3.org/2000/svg"><path d="M110 22.773V3.223A3.223 3.223 0 00106.777 0C94.815 0 82.578 3.456 72.056 9.77a3.18 3.18 0 00-.24-.103A48.173 48.173 0 0055 6.66a48.335 48.335 0 00-17.085 3.096C27.403 3.456 15.151 0 3.223 0A3.223 3.223 0 000 3.223v19.55c0 6.792 3.305 13.401 8.857 17.753A48.48 48.48 0 006.66 55c0 12.52 4.888 24.725 13.446 33.666 2.17 9.053 10.05 14.889 18.78 14.889 1.03 0 2.046-.084 3.043-.24C44.93 107.49 49.74 110 55 110s10.071-2.51 13.07-6.685c.998.156 2.014.24 3.043.24 8.803 0 16.595-5.882 18.775-14.883C98.45 79.73 103.34 67.523 103.34 55c0-3.539-.381-7.03-1.132-10.44C108.365 39.725 110 28.22 110 22.774zm-103.555 0V6.538c8.315.474 16.702 2.765 24.313 6.621-8.171 4.752-15.106 12.027-19.4 20.998-3.107-3.066-4.913-7.187-4.913-11.384zM55 103.555a9.624 9.624 0 01-6.533-2.537A19.256 19.256 0 0055 94.894a19.259 19.259 0 006.533 6.124A9.624 9.624 0 0155 103.555zm-3.018-30.35A3.228 3.228 0 0155 71.114c1.38 0 2.56.871 3.018 2.093L55 76.224l-3.018-3.018zm31.643 13.96c-1.486 6.158-6.766 9.944-12.512 9.944-7.9 0-13.971-6.996-12.733-15.15l5.344-5.344a3.223 3.223 0 00.944-2.28c0-5.33-4.337-9.667-9.668-9.667-5.33 0-9.668 4.337-9.668 9.668 0 .855.34 1.674.944 2.279l5.344 5.344c1.242 8.178-4.857 15.15-12.733 15.15-7.217 0-12.89-5.83-12.89-13.105 0-3.443 1.34-6.68 3.774-9.115a3.222 3.222 0 10-4.557-4.558 19.227 19.227 0 00-4.912 8.322A42.666 42.666 0 0113.105 55c0-13.437 6.36-25.415 16.227-33.087L83.854 85.98a3.23 3.23 0 00-.23 1.187zm12.61-24.75L82.746 46.473a3.223 3.223 0 00-4.92 4.163l16.34 19.312a42.281 42.281 0 01-6.125 11.007l-53.29-62.62a41.595 41.595 0 0112.009-4.414l31.066 36.715a3.223 3.223 0 004.92-4.163L54.518 13.112a41.69 41.69 0 0114.406 2.362l25.602 25.602A41.769 41.769 0 0196.894 55a42.25 42.25 0 01-.659 7.415zm3.728-24.937a3.21 3.21 0 00-.372-.453L76.948 14.383c8.201-4.6 17.433-7.324 26.607-7.845v16.236c0 4.907-1.336 11.14-3.593 14.705z"/><path d="M35.664 45.332c-5.33 0-9.668 4.337-9.668 9.668 0 5.33 4.337 9.668 9.668 9.668 5.331 0 9.668-4.337 9.668-9.668 0-5.33-4.337-9.668-9.668-9.668zm0 12.89A3.226 3.226 0 0132.441 55a3.226 3.226 0 013.223-3.223A3.226 3.226 0 0138.887 55a3.226 3.226 0 01-3.223 3.223z"/></svg><svg viewBox="0 0 110 110" id="icon-orthopedics" xmlns="http://www.w3.org/2000/svg"><path d="M103.88 19.333l-.006-.006a.023.023 0 01-.005-.005l-.01-.01-.004-.004-.005-.005a.03.03 0 01-.006-.006l-.002-.001a19.21 19.21 0 00-8.692-4.987 18.971 18.971 0 00-4.95-8.656c-7.538-7.537-19.801-7.537-27.339 0-6.89 6.89-7.38 17.465-2.09 24.873L49.944 41.353a3.221 3.221 0 00-.881 2.91l2.278 11.391a3.222 3.222 0 002.527 2.527L65.26 60.46a3.222 3.222 0 002.91-.882l10.827-10.827c7.482 5.344 18.076 4.731 24.872-2.09 7.534-7.533 7.537-19.79.011-27.328zm-4.567 22.771l-.091.09-.004.004c-5.584 5.474-14.024 4.28-18.033.003l-.098-.097-.007-.007a3.212 3.212 0 00-2.327-.936c-.863.015-1.66.382-2.181.903l-11.74 11.739-7.594-1.52-1.519-7.593 11.699-11.698a3.222 3.222 0 000-4.557c-5.037-5.037-5.037-13.188 0-18.226 5.024-5.024 13.2-5.024 18.225 0a12.46 12.46 0 012.494 3.57 19.243 19.243 0 00-11.606 5.544 3.222 3.222 0 104.556 4.556c5.28-5.28 13.528-4.685 18.214-.012l.002.002.004.003.006.007c5.024 5.024 5.024 13.2 0 18.225zM39.03 34.518l-4.556-4.557a3.222 3.222 0 10-4.557 4.557l4.557 4.556a3.222 3.222 0 104.556-4.556zM36.752 42.565h-9.113a3.222 3.222 0 100 6.443h9.113a3.222 3.222 0 100-6.444zM45.741 24.462a3.222 3.222 0 00-3.221 3.222v9.113a3.222 3.222 0 006.443 0v-9.113a3.222 3.222 0 00-3.222-3.222zM80.038 75.526l-4.556-4.557a3.222 3.222 0 10-4.557 4.557l4.557 4.556a3.222 3.222 0 104.556-4.556zM64 70.026a3.222 3.222 0 00-3.223 3.222v9.113a3.222 3.222 0 006.444 0v-9.113a3.222 3.222 0 00-3.222-3.222zM82.316 60.821h-9.113a3.222 3.222 0 000 6.444h9.113a3.222 3.222 0 000-6.444z"/><path d="M60.341 65.484a3.224 3.224 0 00-2.453-2.23l-9.285-1.858-1.857-9.285a3.221 3.221 0 00-5.43-1.653L30.53 61.178c-7.545-5.375-18.114-4.68-24.878 2.083-7.537 7.538-7.537 19.801 0 27.339 2.4 2.4 5.361 4.087 8.662 4.951 3.796 14.422 21.85 19.215 32.346 8.718 6.777-6.777 7.481-17.313 2.096-24.865l10.77-10.706a3.22 3.22 0 00.814-3.214zm-18.23 11.44l-.004.004-.002.003a3.226 3.226 0 000 4.556c5.044 5.045 5.025 13.2 0 18.226-7.487 7.487-20.345 3.264-21.818-7.33-.616-4.423.927-8.23 3.592-10.896a3.222 3.222 0 10-4.557-4.556 19.236 19.236 0 00-5.54 11.605 12.456 12.456 0 01-3.573-2.492c-5.024-5.025-5.024-13.201 0-18.226 5.025-5.025 13.201-5.025 18.226 0a3.222 3.222 0 004.55.007l8.619-8.568 1.102 5.51a3.222 3.222 0 002.527 2.527l5.467 1.093-8.589 8.537z"/></svg><svg viewBox="0 0 112 112" id="icon-pharmacy" xmlns="http://www.w3.org/2000/svg"><path d="M14.411 97.589l-.353.353.353-.353c-8.62-8.62-8.62-22.571 0-31.192l-.353-.353.353.353 23.165-23.164 20.93 20.93a29.351 29.351 0 00-6.014 17.83c0 2.658.355 5.236 1.018 7.689l-7.907 7.907c-8.62 8.619-22.571 8.62-31.192 0zM97.59 14.41l.353-.353-.353.353c8.619 8.62 8.621 22.571 0 31.192l-7.907 7.907a29.433 29.433 0 00-7.69-1.018A29.358 29.358 0 0063.72 58.85L42.84 37.969 66.397 14.41c8.62-8.62 22.571-8.62 31.192 0zm-46.722 88.442l5.78-5.78c5.152 8.627 14.584 14.42 25.346 14.42 16.267 0 29.5-13.233 29.5-29.5 0-10.762-5.793-20.194-14.42-25.346l5.78-5.78c11.529-11.529 11.53-30.19 0-41.72-11.529-11.529-30.19-11.53-41.72 0l-47.73 47.73-4.256 4.256c-11.529 11.529-11.53 30.19 0 41.72 11.529 11.529 30.19 11.53 41.72 0zm27.404.88c-10.396-1.774-18.334-10.848-18.334-21.74 0-10.892 7.938-19.966 18.334-21.74v43.48zm7.444 0v-43.48C96.11 62.027 104.05 71.1 104.05 81.993c0 10.892-7.939 19.966-18.334 21.74z"/></svg><svg viewBox="0 0 25 25" id="icon-phone" xmlns="http://www.w3.org/2000/svg"><path d="M24.44 19.73l-3.861-3.862c-.77-.766-2.043-.743-2.839.053l-1.945 1.945-.384-.214c-1.228-.68-2.91-1.613-4.678-3.383-1.774-1.774-2.708-3.458-3.39-4.687-.073-.13-.142-.256-.21-.375l1.305-1.304.642-.642c.797-.798.82-2.07.052-2.839L5.272.56c-.768-.767-2.042-.744-2.84.054L1.346 1.708l.03.03a6.292 6.292 0 00-.897 1.581 6.557 6.557 0 00-.4 1.604C-.43 9.15 1.5 13.013 6.743 18.253c7.245 7.245 13.084 6.698 13.335 6.671a6.524 6.524 0 001.61-.404 6.27 6.27 0 001.575-.893l.024.022 1.102-1.08c.795-.797.818-2.07.051-2.84z"/></svg><svg viewBox="0 0 132 92" id="icon-reproductology" xmlns="http://www.w3.org/2000/svg"><path d="M121.167 0h-15.77c-4.357 0-8.119 2.587-9.837 6.304-2.798-.652-5.806-.981-8.98-.981-3.172 0-6.181.33-8.98.98C75.883 2.588 72.12 0 67.765 0h-15.77C46.02 0 41.16 4.86 41.16 10.832c0 2.198.663 4.452 1.82 6.187l6.846 10.27c1.097 1.644 2.663 2.944 4.467 3.778-3.352 13.428-2.31 36.088-2.31 35.643 0 10.272 8.357 18.629 18.629 18.629 1.681 0 3.31-.225 4.861-.644 2.46 3.751 6.669 6.144 11.106 6.144 4.438 0 8.646-2.393 11.107-6.144 1.55.42 3.18.644 4.861.644 10.272 0 18.629-8.357 18.629-18.63 0-13.558.646-24.814-2.282-35.655 1.792-.835 3.348-2.129 4.438-3.765l6.847-10.27c1.157-1.735 1.82-3.99 1.82-6.186C132 4.86 127.14 0 121.167 0zm-66.91 24.337l-6.848-10.271c-.57-.856-.925-2.095-.925-3.234a5.516 5.516 0 015.51-5.51h15.77a5.516 5.516 0 015.51 5.51c0 1.139-.355 2.378-.925 3.234L65.5 24.337a5.498 5.498 0 01-4.584 2.453h-1.899c-1.9 0-3.768-.963-4.762-2.453zm32.324 61.18c-2.35 0-4.602-1.148-6.119-3.002a18.777 18.777 0 006.118-6.218 18.777 18.777 0 006.119 6.218c-1.517 1.854-3.768 3.001-6.118 3.001zm-2.493-25.063a2.666 2.666 0 012.493-1.728c1.139 0 2.113.72 2.492 1.728l-2.492 2.492-2.493-2.492zm31.767 6.256c0 7.337-5.97 13.306-13.307 13.306-6.98 0-12.722-5.403-13.264-12.246l4.5-4.501c.5-.5.78-1.176.78-1.882 0-4.402-3.581-7.984-7.983-7.984-4.403 0-7.984 3.582-7.984 7.984 0 .706.28 1.383.78 1.882l4.5 4.501c-.542 6.844-6.284 12.246-13.264 12.246-7.337 0-13.307-5.97-13.307-13.306 0-.682-.992-22.038 2.214-34.597h1.397c3.63 0 7-1.803 9.013-4.824l6.847-10.27c1.032-1.548 1.67-3.51 1.795-5.475 2.467-.596 5.15-.899 8.008-.899 2.858 0 5.542.303 8.009.899.125 1.965.763 3.927 1.795 5.475l6.847 10.27a10.862 10.862 0 001.634 1.923 13.226 13.226 0 00-7.64-2.422c-7.337 0-13.306 5.97-13.306 13.307 0 7.337 5.97 13.306 13.307 13.306 7.337 0 13.306-5.97 13.306-13.306 0-3.9-1.687-7.414-4.369-9.85a10.813 10.813 0 006.081 1.866h1.423c2.823 10.125 2.188 20.722 2.188 34.597zM105.21 40.097c0 4.402-3.582 7.984-7.984 7.984-4.403 0-7.984-3.582-7.984-7.984 0-4.403 3.581-7.984 7.984-7.984 4.402 0 7.984 3.581 7.984 7.984zm20.542-26.03l-6.847 10.27c-.994 1.49-2.863 2.453-4.762 2.453h-1.899a5.497 5.497 0 01-4.584-2.453h-.001l-6.847-10.27c-.57-.857-.925-2.096-.925-3.235a5.516 5.516 0 015.51-5.51h15.771a5.516 5.516 0 015.509 5.51c0 1.139-.354 2.378-.925 3.234z"/><path d="M75.936 42.758a2.661 2.661 0 100-5.322 2.661 2.661 0 000 5.322zM97.226 42.758a2.661 2.661 0 100-5.322 2.661 2.661 0 000 5.322zM43.077 43.065h-8.294a5.704 5.704 0 00-5.173 3.315 20.849 20.849 0 00-4.723-.516 20.85 20.85 0 00-4.723.516 5.703 5.703 0 00-5.173-3.316H6.697A5.704 5.704 0 001 48.762c0 1.156.349 2.342.957 3.254l3.6 5.401a5.683 5.683 0 002.35 1.987c-1.763 7.062-1.215 18.98-1.215 18.746 0 5.402 4.395 9.797 9.797 9.797.884 0 1.742-.118 2.557-.339 1.294 1.974 3.507 3.232 5.841 3.232s4.547-1.258 5.841-3.232c.816.221 1.673.34 2.557.34 5.402 0 9.797-4.396 9.797-9.798 0-7.131.34-13.05-1.2-18.753a5.68 5.68 0 002.334-1.98l3.601-5.401c.608-.912.957-2.098.957-3.254a5.704 5.704 0 00-5.697-5.697zM7.887 55.864l-3.601-5.402c-.3-.45-.487-1.102-.487-1.7 0-1.598 1.3-2.898 2.898-2.898h8.294c1.598 0 2.898 1.3 2.898 2.898 0 .598-.187 1.25-.487 1.7l-3.6 5.402a2.892 2.892 0 01-2.412 1.29h-.998c-1 0-1.982-.506-2.505-1.29zm17 32.175c-1.236 0-2.42-.603-3.218-1.578a9.876 9.876 0 003.218-3.27 9.876 9.876 0 003.218 3.27c-.798.975-1.982 1.578-3.218 1.578zm-1.31-13.18c.199-.53.711-.91 1.31-.91.6 0 1.112.38 1.31.91l-1.31 1.31-1.31-1.31zm16.706 3.29a7.006 7.006 0 01-6.998 6.998c-3.671 0-6.691-2.842-6.976-6.44l2.367-2.368a1.4 1.4 0 00.41-.99 4.204 4.204 0 00-4.199-4.199 4.204 4.204 0 00-4.199 4.2c0 .37.148.727.41.989l2.367 2.367c-.285 3.6-3.305 6.44-6.976 6.44a7.006 7.006 0 01-6.998-6.997c0-.359-.522-11.59 1.165-18.196h.734c1.91 0 3.681-.948 4.74-2.537l3.601-5.401c.543-.814.878-1.846.944-2.88 1.297-.313 2.71-.472 4.212-.472 1.503 0 2.915.16 4.212.473.066 1.033.401 2.065.944 2.879l3.6 5.401c.25.375.54.713.86 1.012a6.956 6.956 0 00-4.017-1.274 7.006 7.006 0 00-6.998 6.998 7.006 7.006 0 006.998 6.998 7.006 7.006 0 006.998-6.998c0-2.051-.887-3.899-2.298-5.18.93.63 2.038.981 3.198.981h.749c1.484 5.325 1.15 10.898 1.15 18.196zm-5.599-13.997a4.204 4.204 0 01-4.198 4.2 4.204 4.204 0 01-4.2-4.2 4.204 4.204 0 014.2-4.199 4.204 4.204 0 014.198 4.2zm10.804-13.69l-3.6 5.402c-.523.784-1.506 1.29-2.505 1.29h-.999a2.892 2.892 0 01-2.411-1.29l-3.601-5.402c-.3-.45-.487-1.102-.487-1.7 0-1.598 1.3-2.898 2.898-2.898h8.294c1.598 0 2.898 1.3 2.898 2.898 0 .598-.187 1.25-.487 1.7z"/><path d="M19.288 65.552a1.4 1.4 0 100-2.799 1.4 1.4 0 000 2.8zM30.486 65.552a1.4 1.4 0 100-2.799 1.4 1.4 0 000 2.8z"/></svg><svg viewBox="0 0 110 110" id="icon-surgery" xmlns="http://www.w3.org/2000/svg"><path d="M93.887 32.441c-8.885 0-16.114 7.229-16.114 16.114 0 7.781 5.545 14.291 12.891 15.789v32.765a6.453 6.453 0 01-6.445 6.446 6.453 6.453 0 01-6.446-6.446V84.22c0-7.108-5.782-12.89-12.89-12.89-7.108 0-12.89 5.782-12.89 12.89v12.89a6.453 6.453 0 01-6.446 6.446c-3.61 0-6.66-2.952-6.66-6.446V70.943c3.892-.932 7.403-3.497 9.437-7.056 0 0 20.49-36.067 21.238-37.381a13.431 13.431 0 001.766-6.652c0-7.22-5.736-13.122-12.89-13.396V3.223a3.223 3.223 0 00-6.446 0v12.89a3.223 3.223 0 006.446 0v-3.201c3.598.266 6.445 3.277 6.445 6.942 0 1.21-.317 2.404-.921 3.461l-12.51 22.017H19.876L7.363 23.308a6.974 6.974 0 01-.918-3.454c0-3.665 2.847-6.676 6.446-6.942v3.201a3.223 3.223 0 006.445 0V3.223a3.223 3.223 0 00-6.445 0v3.235C5.737 6.732 0 12.634 0 19.854c0 2.329.61 4.63 1.763 6.645l21.245 37.395c2.031 3.554 5.541 6.118 9.433 7.049v26.166c0 7.167 6.017 12.891 13.106 12.891 7.108 0 12.89-5.783 12.89-12.89V84.218a6.453 6.453 0 016.446-6.446 6.453 6.453 0 016.445 6.446v12.89c0 7.108 5.783 12.891 12.89 12.891 7.109 0 12.891-5.783 12.891-12.89V64.343C104.455 62.847 110 56.336 110 48.554c0-8.884-7.228-16.113-16.113-16.113zM35.664 64.883c-2.791 0-5.629-1.683-7.056-4.18l-5.07-8.926H47.79l-5.067 8.919c-1.431 2.504-4.268 4.187-7.06 4.187zm58.223-6.66c-5.331 0-9.668-4.337-9.668-9.668 0-5.331 4.337-9.668 9.668-9.668 5.33 0 9.668 4.337 9.668 9.668 0 5.33-4.337 9.668-9.668 9.668z"/><path d="M93.887 51.777a3.223 3.223 0 100-6.445 3.223 3.223 0 000 6.445z"/></svg><svg viewBox="0 0 100 110" id="icon-therapy" xmlns="http://www.w3.org/2000/svg"><path d="M96.047 1.781a3.223 3.223 0 00-5.159-.84c-35.642 35.563-24.78 24.717-37.656 37.594L6.385 78.175c-8.053 6.813-8.563 19.082-1.104 26.54 7.484 7.484 19.741 6.933 26.541-1.103l35.895-42.421c2.617-3.094 2.95-7.466 1.093-10.89l4.835-4.834 2.279 2.278a3.222 3.222 0 004.55.008l9.672-9.609a31.462 31.462 0 005.9-36.363zM26.902 99.448c-4.394 5.193-12.258 5.514-17.064.71-4.81-4.812-4.477-12.675.71-17.064l10.123-8.565 14.796 14.796-8.565 10.123zm12.743-15.06L25.608 70.35l4.938-4.177L43.823 79.45l-4.178 4.937zm8.356-9.875L35.483 61.996l4.937-4.178 11.758 11.758-4.177 4.937zm14.795-17.486l-6.44 7.612L45.358 53.64l9.875-8.355 7.382 7.382a3.241 3.241 0 01.181 4.36zm1.734-11.56l-4.558-4.558 4.558-4.558 4.558 4.558-4.558 4.558zm21.066-11.888l-7.386 7.337-9.12-9.12L91.963 8.974a25.017 25.017 0 01-6.367 24.605z"/></svg><svg viewBox="0 0 40 40" id="icon-vk" xmlns="http://www.w3.org/2000/svg"><path fill-rule="evenodd" clip-rule="evenodd" d="M40 20c0 11.046-8.954 20-20 20S0 31.046 0 20 8.954 0 20 0s20 8.954 20 20zm-19.725 8.937H18.72s-3.43.209-6.449-2.97C8.98 22.499 6.07 15.617 6.07 15.617s-.167-.45.015-.669c.205-.245.762-.26.762-.26l3.715-.025s.35.059.601.245c.207.153.322.44.322.44s.6 1.536 1.396 2.925c1.552 2.712 2.275 3.306 2.802 3.015.768-.424.537-3.834.537-3.834s.015-1.238-.386-1.789c-.31-.427-.896-.552-1.154-.587-.209-.028.134-.519.579-.74.668-.33 1.85-.35 3.244-.335 1.087.011 1.4.08 1.825.184.985.24.955 1.012.888 2.677-.02.497-.042 1.074-.042 1.74 0 .15-.005.31-.01.475-.022.852-.049 1.828.506 2.19.285.187.98.029 2.722-2.96.825-1.418 1.444-3.083 1.444-3.083s.135-.297.345-.425c.215-.13.505-.09.505-.09l3.909-.024s1.175-.142 1.365.394c.2.563-.44 1.877-2.036 4.03-1.518 2.046-2.255 2.797-2.185 3.463.051.484.53.924 1.448 1.785 1.924 1.806 2.437 2.755 2.559 2.98l.022.04c.861 1.445-.955 1.558-.955 1.558l-3.472.05s-.746.149-1.728-.534c-.514-.356-1.016-.938-1.494-1.493-.731-.847-1.407-1.63-1.984-1.446-.968.31-.937 2.42-.937 2.42s.007.45-.214.69c-.24.261-.71.313-.71.313z"/></svg><svg viewBox="0 0 40 40" id="icon-youtube" xmlns="http://www.w3.org/2000/svg"><path fill-rule="evenodd" clip-rule="evenodd" d="M20 0C8.956 0 0 8.956 0 20s8.956 20 20 20 20-8.956 20-20S31.044 0 20 0zm12.497 20.02s0 4.056-.515 6.012a3.132 3.132 0 01-2.203 2.203c-1.956.515-9.78.515-9.78.515s-7.802 0-9.778-.535a3.132 3.132 0 01-2.203-2.203C7.503 24.076 7.503 20 7.503 20s0-4.056.515-6.012a3.195 3.195 0 012.203-2.223C12.177 11.25 20 11.25 20 11.25s7.823 0 9.78.535a3.132 3.132 0 012.202 2.203c.536 1.956.515 6.032.515 6.032zM24.015 20l-6.506 3.747v-7.494L24.015 20z"/></svg></svg>